<?xml version="1.0" encoding="utf-8"?>
<!-- Generator: Adobe Illustrator 16.0.0, SVG Export Plug-In . SVG Version: 6.00 Build 0)  -->
<!DOCTYPE svg PUBLIC "-//W3C//DTD SVG 1.1//EN" "http://www.w3.org/Graphics/SVG/1.1/DTD/svg11.dtd">
<svg version="1.1" id="Layer_9" xmlns="http://www.w3.org/2000/svg" xmlns:xlink="http://www.w3.org/1999/xlink" x="0px" y="0px"
	 width="100px" height="100px" viewBox="0 0 100 100" enable-background="new 0 0 100 100" xml:space="preserve">
<path d="M72.44,22.969c1.414,2.874,0.717,6.457,0.326,7.931l7.544,7.167v15.67H60.326v-15.67l7.71-7.569l0.046-0.212
	c0.379-1.183,1.106-4.878-0.474-6.298c0,0-1.029-1.055-1.72-1.055c-0.643,0-7.168,0.022-10.01,0.032
	c5.758-2.199,9.873-2.408,12.019-0.559c3.61,3.111,1.06,11.222,1.033,11.304c-0.042,0.132-0.055,0.267-0.043,0.397l-6.228,5.606
	v11.488H77.31V39.713l-6.418-5.58c0.411-1.372,2.619-9.524-1.687-13.239c-3.324-2.866-9.505-2.16-18.367,2.075H29.416v0.849
	c-7.879,0.495-14.145,7.045-14.145,15.049v8.877c0,8.003,6.266,14.553,14.145,15.049v0.284c0,9.81,7.95,17.758,17.758,17.758h19.797
	c9.807,0,17.758-7.948,17.758-17.758V22.969H72.44z M29.416,57.463c-4.941-0.479-8.82-4.654-8.82-9.72v-8.877
	c0-5.07,3.879-9.241,8.82-9.721V57.463z M52.169,72.254c-16.548,0-16.736-15.088-16.736-15.24v-23.6c0-1.029,0.835-1.86,1.856-1.86
	c1.031,0,1.861,0.831,1.861,1.86v23.6c0.011,1.17,0.454,11.518,13.019,11.518c1.028,0,1.861,0.836,1.861,1.861
	C54.03,71.423,53.197,72.254,52.169,72.254z"/>
</svg>
