<?xml version="1.0" encoding="utf-8"?>
<!-- Generator: Adobe Illustrator 19.1.0, SVG Export Plug-In . SVG Version: 6.00 Build 0)  -->
<svg version="1.1" id="Layer_1" xmlns="http://www.w3.org/2000/svg" xmlns:xlink="http://www.w3.org/1999/xlink" x="0px" y="0px"
	 viewBox="0 0 72 72" enable-background="new 0 0 72 72" xml:space="preserve">
<path fill="#FFFFFF" d="M28.2,33.2c-0.1-0.1-0.2-0.1-0.4-0.2c-2.8-1.6-5.9-2.1-9-1.2c-4.7,1.4-7.5,4.6-8.7,9.2
	c-0.1,0.3-0.2,0.4-0.5,0.4c-1.8,0.5-3,2.4-2.7,4.3c0,0.3,0,0.5-0.3,0.5c-0.2,0-0.4,0.1-0.6,0.2c-4.5,1.5-6.9,6.3-5.8,10.9
	c1,4,4.8,7.1,9.3,6.7c1.9-0.2,3.6-0.9,5-2.2c0.2-0.2,0.5-0.5,0.7-0.8c0.1,0.2,0.2,0.3,0.3,0.4c1.9,2.7,5.5,3.4,8.3,1.7
	c0.2-0.1,0.4-0.1,0.6,0c1.9,1.1,3.8,1.2,5.8,0.3c0.3-0.1,0.4-0.1,0.7,0c2.9,1.6,6.3,1.3,8.8-0.9c0.6-0.5,1-1,1.5-1.6
	c2.1,3.5,7.1,4.2,10.1,0.9c0,0,0,0,0.1,0c0.1,0,0.1,0.1,0.2,0.1c1.9,1.4,4,2.2,6.3,2.4c2,0.2,3.9-0.1,5.8-0.9
	c5.6-2.4,8.6-8.4,7.8-14c-0.5-3.5-2.2-6.4-5-8.6c-1.9-1.5-4.1-2.4-6.5-2.5c-0.9-0.1-1.9,0-2.8,0c-2-6.4-6.1-10.8-12.8-12
	C37.6,25.1,32.2,27.7,28.2,33.2z"/>
</svg>
