<?xml version="1.0" encoding="utf-8"?>
<!-- Generator: Adobe Illustrator 19.1.0, SVG Export Plug-In . SVG Version: 6.00 Build 0)  -->
<svg version="1.1" id="Layer_1" xmlns="http://www.w3.org/2000/svg" xmlns:xlink="http://www.w3.org/1999/xlink" x="0px" y="0px"
	 viewBox="0 0 72 72" enable-background="new 0 0 72 72" xml:space="preserve">
<path fill="#FFFFFF" d="M28.2,12.6c-0.1-0.1-0.3-0.1-0.4-0.2c-2.9-1.6-5.9-2.1-9-1.2c-4.7,1.4-7.5,4.6-8.7,9.3
	c-0.1,0.3-0.2,0.4-0.5,0.4c-1.8,0.5-3,2.4-2.7,4.3c0,0.3,0,0.5-0.3,0.5c-0.2,0-0.4,0.1-0.6,0.2c-4.5,1.5-7,6.4-5.8,10.9
	c1,4,4.8,7.2,9.3,6.7c1.9-0.2,3.6-0.9,5-2.2c0.2-0.2,0.5-0.5,0.7-0.8c0.1,0.2,0.2,0.3,0.3,0.4c1.9,2.7,5.5,3.4,8.3,1.7
	c0.2-0.1,0.4-0.1,0.6,0c1.9,1.1,3.8,1.2,5.8,0.3c0.3-0.1,0.4-0.1,0.7,0c2.9,1.6,6.3,1.3,8.9-0.9c0.6-0.5,1-1,1.5-1.6
	c2.1,3.5,7.1,4.2,10.1,0.9c0,0,0,0,0.1,0c0.1,0,0.1,0.1,0.2,0.1c1.9,1.4,4,2.2,6.3,2.4c2,0.2,3.9-0.1,5.8-0.9
	c5.6-2.4,8.6-8.4,7.8-14.1c-0.5-3.5-2.2-6.5-5-8.6c-1.9-1.5-4.1-2.4-6.5-2.5c-0.9-0.1-1.9,0-2.8,0c-2-6.4-6.1-10.8-12.9-12.1
	C37.7,4.5,32.3,7.2,28.2,12.6z M16.7,56c0,1.2,0.9,2.1,2.1,2.1c1.2,0,2.1-0.9,2.1-2.1c0-1.2-0.9-2.1-2.1-2.1
	C17.6,53.8,16.7,54.7,16.7,56z M54.5,61.5c0.1-1-0.8-2.1-2.1-2.1c-1.2,0-2.1,0.9-2.1,2.1c0,1.2,1,2.1,2.1,2.1
	C53.5,63.6,54.5,62.6,54.5,61.5z M40.5,62.2c0,1.2,0.9,2.1,2.1,2.1c1.2,0,2.1-0.9,2.1-2.1c0-1.2-0.9-2.1-2.1-2.1
	C41.4,60.1,40.5,61,40.5,62.2z M54.4,50.2c0-1.1-0.9-2-2-2c-1.1,0-2.1,0.9-2.1,2c0,1.1,1,2.1,2.1,2.1C53.5,52.3,54.4,51.3,54.4,50.2
	z M28.9,57.4c0-1.1-0.9-2-2-2.1c-1.1,0-2,0.9-2,2c0,1.2,0.9,2.1,2,2.1C28,59.4,28.9,58.5,28.9,57.4z M26.6,49.7c1.2,0,2-0.8,2.1-2
	c0-1.1-0.9-2-2.1-2c-1.1,0-2,0.9-2,2C24.6,48.9,25.5,49.7,26.6,49.7z M32.1,51.1c0,1.2,0.9,2,2,2c1.1,0,2-0.9,2.1-2
	c0-1.2-0.9-2-2-2.1C33,49.1,32.1,49.9,32.1,51.1z M16.6,48.8c0,1.2,0.9,2,2,2c1.2,0,2-0.9,2-2c0-1.1-0.9-2-2-2
	C17.4,46.8,16.6,47.7,16.6,48.8z M16.8,64.7c0,1,0.8,1.8,1.8,1.8c1,0,1.8-0.8,1.8-1.8c0-1-0.8-1.8-1.8-1.8
	C17.6,62.9,16.8,63.7,16.8,64.7z M42.6,56.4c1,0,1.8-0.8,1.8-1.8c0-1-0.8-1.8-1.8-1.8c-1,0-1.8,0.8-1.8,1.8
	C40.8,55.7,41.5,56.4,42.6,56.4z M42.6,45.5c-1,0-1.8,0.7-1.8,1.7c0,1,0.8,1.8,1.8,1.8c1,0,1.8-0.8,1.8-1.8
	C44.4,46.3,43.6,45.5,42.6,45.5z"/>
</svg>
